<?xml version="1.0" encoding="UTF-8" standalone="no"?>
<!DOCTYPE svg PUBLIC "-//W3C//DTD SVG 1.1//EN" "http://www.w3.org/Graphics/SVG/1.1/DTD/svg11.dtd">
<svg width="100%" height="100%" viewBox="0 0 1000 1000" version="1.1" xmlns="http://www.w3.org/2000/svg" xmlns:xlink="http://www.w3.org/1999/xlink" xml:space="preserve" xmlns:serif="http://www.serif.com/" style="fill-rule:evenodd;clip-rule:evenodd;stroke-linejoin:round;stroke-miterlimit:2;">
    <g transform="matrix(2.38904,0,0,3.5625,-359.866,-153.256)">
        <rect x="150.632" y="43.019" width="418.578" height="280.701" style="fill:url(#_Linear1);"/>
    </g>
    <g transform="matrix(1,0,0,1,82.25,-317.25)">
        <g transform="matrix(500,0,0,500,0,1000)">
            <path d="M0.287,-0.403L0.046,-0.754L0.287,-0.754L0.402,-0.559L0.517,-0.754L0.758,-0.754L0.517,-0.403L0.796,-0L0.56,-0L0.402,-0.246L0.229,-0L-0.008,-0L0.287,-0.403Z" style="fill:#fff;fill-rule:nonzero;"/>
        </g>
        <g transform="matrix(500,0,0,500,394.5,1000)">
            <path d="M0.89,0.019L0.71,0.047L0.65,-0.024C0.621,-0.007 0.59,0.006 0.556,0.014C0.521,0.021 0.484,0.025 0.443,0.025C0.322,0.025 0.223,-0.014 0.144,-0.091C0.065,-0.168 0.026,-0.268 0.026,-0.39C0.026,-0.504 0.068,-0.597 0.153,-0.67C0.238,-0.742 0.334,-0.778 0.443,-0.778C0.56,-0.778 0.659,-0.741 0.74,-0.668C0.82,-0.595 0.86,-0.497 0.86,-0.374C0.86,-0.324 0.852,-0.277 0.835,-0.234C0.818,-0.19 0.794,-0.148 0.763,-0.109L0.89,0.019ZM0.568,-0.318L0.621,-0.263C0.63,-0.274 0.637,-0.287 0.642,-0.301C0.647,-0.315 0.651,-0.329 0.654,-0.344C0.655,-0.349 0.655,-0.354 0.656,-0.359C0.656,-0.364 0.656,-0.368 0.656,-0.373C0.656,-0.43 0.636,-0.48 0.595,-0.523C0.554,-0.566 0.503,-0.588 0.444,-0.588C0.385,-0.588 0.335,-0.568 0.293,-0.528C0.251,-0.487 0.23,-0.441 0.23,-0.389C0.23,-0.324 0.251,-0.271 0.293,-0.228C0.335,-0.185 0.385,-0.164 0.444,-0.164C0.454,-0.164 0.464,-0.165 0.474,-0.167C0.484,-0.168 0.494,-0.171 0.504,-0.174L0.383,-0.295L0.568,-0.318Z" style="fill:#fff;fill-rule:nonzero;"/>
        </g>
    </g>
    <defs>
        <linearGradient id="_Linear1" x1="0" y1="0" x2="1" y2="0" gradientUnits="userSpaceOnUse" gradientTransform="matrix(203.601,-145.226,216.558,136.537,208.942,284.705)"><stop offset="0" style="stop-color:#0093ff;stop-opacity:1"/><stop offset="1" style="stop-color:#3f00bd;stop-opacity:1"/></linearGradient>
    </defs>
</svg>
